# xmcd
#
# Track frame offsets:
#	150
#	9913
#	23568
#	33239
#	50211
#	61390
#	73410
#	82260
#	94328
#	114078
#	129399
#	148628
#	169634
#
# Disc length: 2485 seconds
#
# Revision: 0
# Processed by: cddbd v1.5.2PL0 Copyright (c) Steve Scherf et al.
# Submitted via: EasyCDDAExtractor 10.0.2.1
#
DISCID=ae09b30d
DTITLE=Black Creek - Highway To Heaven
DYEAR=2006
DGENRE=Gospel
TTITLE0=That's Him
TTITLE1=Access To The Throne Room
TTITLE2=Nothing In The World
TTITLE3=Highway To Heaven
TTITLE4=Keep Your Eyes On Jesus
TTITLE5=This Blessed Old Book
TTITLE6=Hallelujah, I'm Ready To Go
TTITLE7=No One Else
TTITLE8=He Touched Me
TTITLE9=God Hath Provided Himself A Lamb
TTITLE10=If You Only Knew
TTITLE11=I've Come To Take You Home
TTITLE12=Heaven's Door
EXTD=
EXTT0=
EXTT1=
EXTT2=
EXTT3=
EXTT4=
EXTT5=
EXTT6=
EXTT7=
EXTT8=
EXTT9=
EXTT10=
EXTT11=
EXTT12=
PLAYORDER=
